{
  "accessors": [
    {
      "bufferView": 2,
      "componentType": 5126,
      "count": 1852,
      "max": [
        -0.92556899785995483,
        -1.7015310525894165,
        6.7244877815246582
      ],
      "min": [
        -4.163701057434082,
        -8.4642696380615234,
        0.02819100022315979
      ],
      "type": "VEC3"
    },
    {
      "bufferView": 2,
      "byteOffset": 22224,
      "componentType": 5126,
      "count": 1852,
      "max": [
        1,
        1,
        1
      ],
      "min": [
        -1,
        -1,
        -1
      ],
      "type": "VEC3"
    },
    {
      "bufferView": 1,
      "componentType": 5126,
      "count": 1852,
      "max": [
        0.99766099452972412,
        0.99729901552200317
      ],
      "min": [
        0.00034500000765547156,
        0.0069039999507367611
      ],
      "type": "VEC2"
    },
    {
      "bufferView": 0,
      "componentType": 5125,
      "count": 5292,
      "max": [
        1851
      ],
      "min": [
        0
      ],
      "type": "SCALAR"
    },
    {
      "bufferView": 2,
      "byteOffset": 44448,
      "componentType": 5126,
      "count": 8799,
      "max": [
        11.344485282897949,
        10.147858619689941,
        9.5473699569702148
      ],
      "min": [
        -11.293811798095703,
        -9.814300537109375,
        -6.7445530891418457
      ],
      "type": "VEC3"
    },
    {
      "bufferView": 2,
      "byteOffset": 150036,
      "componentType": 5126,
      "count": 8799,
      "max": [
        1,
        1,
        1
      ],
      "min": [
        -1,
        -1,
        -1
      ],
      "type": "VEC3"
    },
    {
      "bufferView": 1,
      "byteOffset": 14816,
      "componentType": 5126,
      "count": 8799,
      "max": [
        1.9990750551223755,
        0.99926799535751343
      ],
      "min": [
        1.0020920038223267,
        0.0015529999509453773
      ],
      "type": "VEC2"
    },
    {
      "bufferView": 0,
      "byteOffset": 21168,
      "componentType": 5125,
      "count": 24240,
      "max": [
        8798
      ],
      "min": [
        0
      ],
      "type": "SCALAR"
    }
  ],
  "asset": {
    "extras": {
      "author": "clgreene86 (https://sketchfab.com/clgreene86)",
      "license": "CC-BY-4.0 (http://creativecommons.org/licenses/by/4.0/)",
      "source": "https://sketchfab.com/3d-models/nasa-opportunity-rover-448474b302be4035baa2895878d6b29b",
      "title": "NASA Opportunity Rover"
    },
    "generator": "Sketchfab-8.23.0",
    "version": "2.0"
  },
  "bufferViews": [
    {
      "buffer": 0,
      "byteLength": 118128,
      "byteOffset": 0,
      "name": "floatBufferViews",
      "target": 34963
    },
    {
      "buffer": 0,
      "byteLength": 85208,
      "byteOffset": 118128,
      "byteStride": 8,
      "name": "floatBufferViews",
      "target": 34962
    },
    {
      "buffer": 0,
      "byteLength": 255624,
      "byteOffset": 203336,
      "byteStride": 12,
      "name": "floatBufferViews",
      "target": 34962
    }
  ],
  "buffers": [
    {
      "byteLength": 458960,
      "uri": "scene.bin"
    }
  ],
  "images": [
    {
      "uri": "textures/lambert4SG_baseColor.png"
    },
    {
      "uri": "textures/lambert4SG_metallicRoughness.png"
    },
    {
      "uri": "textures/lambert5SG_baseColor.png"
    },
    {
      "uri": "textures/lambert5SG_metallicRoughness.png"
    }
  ],
  "materials": [
    {
      "doubleSided": true,
      "emissiveFactor": [
        0,
        0,
        0
      ],
      "name": "lambert4SG",
      "pbrMetallicRoughness": {
        "baseColorFactor": [
          1,
          1,
          1,
          1
        ],
        "baseColorTexture": {
          "index": 0,
          "texCoord": 0
        },
        "metallicFactor": 0.8675685975609756,
        "metallicRoughnessTexture": {
          "index": 1,
          "texCoord": 0
        },
        "roughnessFactor": 0.11147103658536585
      }
    },
    {
      "doubleSided": true,
      "emissiveFactor": [
        0,
        0,
        0
      ],
      "name": "lambert5SG",
      "pbrMetallicRoughness": {
        "baseColorFactor": [
          1,
          1,
          1,
          1
        ],
        "baseColorTexture": {
          "index": 2,
          "texCoord": 0
        },
        "metallicFactor": 0.83708079268292679,
        "metallicRoughnessTexture": {
          "index": 3,
          "texCoord": 0
        },
        "roughnessFactor": 1
      }
    }
  ],
  "meshes": [
    {
      "primitives": [
        {
          "attributes": {
            "NORMAL": 1,
            "POSITION": 0,
            "TEXCOORD_0": 2
          },
          "indices": 3,
          "material": 0,
          "mode": 4
        }
      ]
    },
    {
      "primitives": [
        {
          "attributes": {
            "NORMAL": 5,
            "POSITION": 4,
            "TEXCOORD_0": 6
          },
          "indices": 7,
          "material": 1,
          "mode": 4
        }
      ]
    }
  ],
  "nodes": [
    {
      "children": [
        1
      ],
      "name": "RootNode (gltf orientation matrix)",
      "rotation": [
        -0.70710678118654746,
        -0,
        -0,
        0.70710678118654757
      ]
    },
    {
      "children": [
        2
      ],
      "name": "RootNode (model correction matrix)"
    },
    {
      "children": [
        3,
        4
      ],
      "name": "Rover.obj.cleaner.materialmerger.gles"
    },
    {
      "mesh": 0,
      "name": ""
    },
    {
      "mesh": 1,
      "name": ""
    }
  ],
  "samplers": [
    {
      "magFilter": 9729,
      "minFilter": 9987,
      "wrapS": 10497,
      "wrapT": 10497
    }
  ],
  "scene": 0,
  "scenes": [
    {
      "name": "OSG_Scene",
      "nodes": [
        0
      ]
    }
  ],
  "textures": [
    {
      "sampler": 0,
      "source": 0
    },
    {
      "sampler": 0,
      "source": 1
    },
    {
      "sampler": 0,
      "source": 2
    },
    {
      "sampler": 0,
      "source": 3
    }
  ]
}

